PathFileType        4      (X/Y/Z)      C:\Users\pc\Desktop\IMUTRC\Sujet_06\Sujet_06_velo_60.trc         
DataRate	CameraRate	NumFrames	NumMarkers	Units	OrigDataRate	OrigDataStartFrame	OrigNumFrames
60.0	60.0	4	64	mm	60.0	118	936
Frame#	Time	pHipOrigin			pRightASI			pLeftASI			pRightCSI			pLeftCSI			pRightIschialTub			pLeftIschialTub			pSacrum			pL5SpinalProcess			pL3SpinalProcess			pT12SpinalProcess			pIJ			pT4SpinalProcess			pT8SpinalProcess			pPX			pC7SpinalProcess			pTopOfHead			pRightAuricularis			pLeftAuricularis			pBackOfHead			pRightAcromion			pLeftAcromion			pRightArmLatEpicondyle			pRightArmMedEpicondyle			pLeftArmLatEpicondyle			pLeftArmMedEpicondyle			pRightUlnarStyloid			pRightRadialStyloid			pRightOlecranon			pLeftUlnarStyloid			pLeftRadialStyloid			pLeftOlecranon			pRightTopOfHand			pRightPinky			pRightBallHand			pLeftTopOfHand			pLeftPinky			pLeftBallHand			pRightGreaterTrochanter			pRightKneeLatEpicondyle			pRightKneeMedEpicondyle			pRightPatella			pLeftGreaterTrochanter			pLeftKneeLatEpicondyle			pLeftKneeMedEpicondyle			pLeftPatella			pRightTibialTub			pRightLatMalleolus			pRightMedMalleolus			pLeftTibialTub			pLeftLatMalleolus			pLeftMedMalleolus			pRightHeelFoot			pRightFirstMetatarsal			pRightFifthMetatarsal			pRightPivotFoot			pRightHeelCenter			pRightToe			pLeftHeelFoot			pLeftFirstMetatarsal			pLeftFifthMetatarsal			pLeftPivotFoot			pLeftHeelCenter			pLeftToe			
		X1	Y1	Z1	X2	Y2	Z2	X3	Y3	Z3	X4	Y4	Z4	X5	Y5	Z5	X6	Y6	Z6	X7	Y7	Z7	X8	Y8	Z8	X9	Y9	Z9	X10	Y10	Z10	X11	Y11	Z11	X12	Y12	Z12	X13	Y13	Z13	X14	Y14	Z14	X15	Y15	Z15	X16	Y16	Z16	X17	Y17	Z17	X18	Y18	Z18	X19	Y19	Z19	X20	Y20	Z20	X21	Y21	Z21	X22	Y22	Z22	X23	Y23	Z23	X24	Y24	Z24	X25	Y25	Z25	X26	Y26	Z26	X27	Y27	Z27	X28	Y28	Z28	X29	Y29	Z29	X30	Y30	Z30	X31	Y31	Z31	X32	Y32	Z32	X33	Y33	Z33	X34	Y34	Z34	X35	Y35	Z35	X36	Y36	Z36	X37	Y37	Z37	X38	Y38	Z38	X39	Y39	Z39	X40	Y40	Z40	X41	Y41	Z41	X42	Y42	Z42	X43	Y43	Z43	X44	Y44	Z44	X45	Y45	Z45	X46	Y46	Z46	X47	Y47	Z47	X48	Y48	Z48	X49	Y49	Z49	X50	Y50	Z50	X51	Y51	Z51	X52	Y52	Z52	X53	Y53	Z53	X54	Y54	Z54	X55	Y55	Z55	X56	Y56	Z56	X57	Y57	Z57	X58	Y58	Z58	X59	Y59	Z59	X60	Y60	Z60	X61	Y61	Z61	X62	Y62	Z62	X63	Y63	Z63	X64	Y64	Z64	
118	1.95	0.0	1249.97291	7.653876616262013E-14	36.751820000000016	1328.23198	129.21847000000008	81.66418999999999	1340.44345	-96.57626999999992	3.4638300000000135	1388.70223	107.43743000000009	41.33111999999999	1399.03501	-82.95578999999991	-58.239309999999996	1199.6006	35.28410000000008	-39.33502000000001	1204.76699	-59.88315999999992	-56.77158	1270.40363	-10.156649999999916	-25.18615	1360.81546	0.1761300000000864	20.31331	1470.42513	13.209520000000088	63.99279	1569.93685	24.59906000000009	306.16733	1656.18034	80.66614000000006	176.18565	1731.85622	50.78327000000009	117.88763	1663.108	37.39762000000009	230.43275	1558.95827	63.288280000000064	219.10192	1778.64728	60.88121000000008	499.08504	1804.24439	71.39012000000005	397.34238	1791.03487	146.30278000000007	394.58306	1785.57494	1.702560000000061	387.18573	1844.46005	72.03592000000008	190.45193000000003	1744.65478	237.71266000000008	259.84595	1745.00703	-115.77410999999991	353.36935	1495.96354	224.67927000000003	341.68627	1490.85586	162.97613000000007	432.86131	1509.17306	-123.87594999999996	401.56943	1481.345	-76.73263999999996	507.83268000000004	1307.74254	273.52514	541.41422	1330.75647	241.11778000000004	328.71158	1484.6327	211.70458000000005	628.59706	1358.81936	-156.81169	642.21754	1370.56115	-107.96582	408.61451	1492.49971	-126.16559999999997	692.12017	1321.48045	238.29975	622.90229	1292.47821	270.53098	554.91729	1300.58005	258.31951	795.74152	1352.47879	-83.24933000000001	735.15386	1341.55892	-136.90934	665.81855	1346.72531	-135.61775	-5.401229999999982	1218.15264	146.8898700000001	280.33538	968.46335	159.68843000000004	297.30228	975.50842	88.18089000000002	313.44725	1004.56937	130.45136000000002	48.72844999999999	1236.46984	-142.54540999999992	333.17347	990.30309	-91.23375999999999	325.18904	987.48506	-17.96494999999998	353.13452	1022.06464	-48.25877999999998	300.88353	922.31809	127.57462000000001	-8.219259999999984	713.02057	125.05013000000004	0.35225000000000817	709.3219	66.63469000000005	376.73553	959.59829	-51.370359999999984	300.82482	600.1232	-117.53538	296.59777	595.01552	-58.76769	-88.47442999999998	680.02612	81.54677000000005	23.83585000000001	564.07589	87.24155000000003	7.045080000000019	575.9351	160.80390000000003	29.882870000000015	554.56503	128.74879000000004	-62.348939999999985	655.07481	91.52730000000005	80.19647000000002	501.02244	148.82727000000003	248.51512	521.39446	-89.94216	400.63008	498.38054	-40.74403000000002	406.26615	496.44314	-116.88958000000002	424.70077	493.97736	-76.08684000000002	285.6779	517.51966	-87.06542	499.73084	482.11815	-70.21594000000003	
119	1.967	0.0	1249.97291	7.653876616262013E-14	35.87119000000001	1328.40811	129.3358800000001	82.36869999999999	1340.20861	-96.16530999999993	2.818030000000013	1388.87836	107.20260000000009	42.03562999999999	1398.85888	-82.89707999999992	-58.532849999999996	1199.71802	34.99055000000008	-38.92405000000001	1204.70828	-60.05928999999992	-56.65417	1270.46234	-10.626329999999914	-25.12744	1360.81546	-0.1174199999999136	20.2546	1470.48384	13.092100000000089	63.75795	1569.99556	24.775190000000087	305.58024	1656.5326	81.84032000000006	175.53985	1732.03235	51.605190000000086	117.41796	1663.16671	37.92600000000009	230.0805	1559.19311	64.05150000000008	218.3387	1778.88211	61.93797000000008	498.32183	1804.71407	73.26881000000006	396.40304	1791.38713	147.88792000000007	393.93726	1786.04461	3.346410000000061	386.42251	1844.8123	73.67977000000008	189.33646000000002	1744.30252	238.65201000000008	259.66982	1745.88767	-114.59992999999992	352.3713	1495.66999	225.03152000000003	340.68821	1490.67973	163.32838000000007	432.80261	1509.93627	-122.76047999999996	401.04105	1481.69725	-76.20425999999996	507.12818000000004	1307.62513	273.58385	540.651	1330.75647	241.17649000000003	327.71353	1484.33916	212.05684000000005	627.89255	1358.99548	-156.57685	641.68916	1370.67857	-107.78969	408.26225	1493.0868	-125.28495999999997	691.35696	1321.65657	238.29975	622.19778	1292.59563	270.53098	554.21278	1300.58005	258.31951	795.15443	1352.42008	-83.19063000000001	734.50806	1341.61763	-136.79192	665.17275	1346.84273	-135.44162	-4.755429999999982	1219.09198	146.94858000000008	290.31591	980.5574	160.39294000000004	306.81313	987.83731	88.82669000000001	321.96005	1017.77889	130.86232000000004	47.73039999999999	1234.53245	-142.72152999999992	320.19878	974.74521	-93.34727999999998	312.80145	972.51426	-19.96104999999998	342.09723	1005.56742	-50.60713999999998	309.74858	934.70568	128.22041000000002	-1.5851399999999845	728.69587	126.22431000000005	6.868950000000008	724.93849	67.86758000000005	364.7589	944.86234	-53.660009999999986	293.5449	584.03694	-117.94634	289.84624	579.10539	-59.17865	-82.48611999999999	697.11044	82.89708000000006	27.76935000000001	579.2228	88.65056000000003	11.272120000000019	591.49298	162.21291000000002	33.757660000000016	569.65324	130.15781000000004	-56.830289999999984	671.68945	92.87761000000005	83.13192000000001	515.28872	150.29499000000004	241.52875	505.42561	-89.64861	393.64372	482.70524	-40.56791000000002	399.22107	480.18075	-116.71345000000001	417.7144	478.06723	-75.91071000000002	278.69153	501.55082	-86.83058	492.74447	466.20802	-70.09852000000002	
120	1.983	0.0	1249.97291	7.653876616262013E-14	34.99055000000001	1328.58423	129.5120100000001	83.07320999999999	1340.03248	-95.69563999999993	2.113520000000013	1389.05448	107.02647000000009	42.68142999999999	1398.68276	-82.83836999999991	-58.82639999999999	1199.77673	34.63830000000008	-38.513090000000005	1204.59087	-60.29411999999992	-56.59546	1270.46234	-11.037289999999915	-25.06873	1360.75675	-0.35224999999991363	20.13718	1470.48384	13.092100000000089	63.52312	1570.05427	25.01003000000009	305.05186	1656.88485	83.01450000000006	174.95276	1732.14977	52.485830000000085	117.007	1663.28413	38.454380000000086	229.72824	1559.42794	64.81471000000008	217.6929	1779.11695	62.99474000000008	497.55861	1805.18374	75.03008000000005	395.46369	1791.73938	149.47306000000006	393.35017	1786.45557	4.872850000000061	385.60059	1845.22326	75.26491000000007	188.16228000000004	1743.89156	239.65006000000008	259.37628	1746.70959	-113.48445999999991	351.37325	1495.31774	225.26636000000002	339.63145	1490.38618	163.56322000000006	432.62648	1510.58207	-121.52758999999996	400.39525	1481.93209	-75.55845999999995	506.48238000000003	1307.50771	273.46643	539.9465	1330.75647	241.11778000000004	326.71548	1483.9282	212.29167000000007	627.12933	1359.17161	-156.40072	641.04336	1370.73728	-107.61356	407.79258	1493.55647	-124.28690999999998	690.71116	1321.89141	238.29975	621.61069	1292.71305	270.53098	553.56698	1300.58005	258.26081	794.50864	1352.30266	-83.24933000000001	733.74484	1341.67634	-136.73322	664.40953	1346.96014	-135.3242	-4.109629999999982	1220.09004	146.94858000000008	300.29644	993.59079	160.86261000000002	316.26528	1001.04683	89.23765000000002	330.35543	1031.86904	131.03844000000004	46.73234999999998	1232.82989	-142.83894999999993	306.46088	959.89183	-95.87176999999998	299.65064	958.01315	-22.426829999999974	330.29673	989.59858	-53.366459999999975	318.96589	947.9152	128.74879000000004	6.516700000000016	743.54924	127.28107000000004	14.970790000000008	739.67445	68.92434000000004	351.96034	930.53734	-56.478039999999986	284.73856	568.59648	-118.53343	281.62698	563.95847	-59.70703	-74.79523999999999	713.07928	83.95384000000006	33.757660000000016	593.66521	90.05958000000004	17.37786000000002	606.34635	163.56322000000003	39.56985000000002	584.09565	131.56683000000004	-49.491669999999985	687.36475	94.05179000000004	88.12218000000001	529.08533	151.88013000000004	232.66369	490.33741	-89.35507	384.83737	467.4409	-40.45049000000002	390.17989	464.21191	-116.59604000000002	408.79063	462.39193	-75.85200000000003	269.82648	486.3452	-86.59575	483.762	450.29788	-70.09852000000002	
121	2.0	0.0	1249.97291	7.653876616262013E-14	34.05121000000001	1328.76036	129.6294300000001	83.83641999999999	1339.91507	-95.16725999999993	1.409020000000013	1389.1719	106.85034000000009	43.32722999999999	1398.56534	-82.72094999999992	-59.061229999999995	1199.83544	34.28604000000008	-38.10213000000001	1204.53216	-60.52895999999992	-56.47804	1270.46234	-11.506959999999914	-25.06873	1360.75675	-0.6457999999999136	20.07847	1470.48384	13.03339000000009	63.28828	1570.05427	25.244860000000088	304.52348	1657.11969	84.07126000000005	174.48309	1732.26718	53.24905000000008	116.65474	1663.34284	38.982760000000084	229.4347	1559.60407	65.46051000000007	217.10581	1779.23437	63.99279000000008	496.91281	1805.53599	76.67393000000006	394.70048	1791.97422	150.88208000000006	392.8805	1786.80783	6.281860000000061	384.95479	1845.51681	76.67393000000007	187.22294000000002	1743.4806	240.53069000000008	259.20015	1747.29668	-112.48640999999992	350.61003	1494.96548	225.44249000000002	338.80953	1490.21006	163.73935000000006	432.45035	1510.93433	-120.41211999999996	399.80816	1482.04951	-74.91265999999996	506.07141000000007	1307.39029	273.29031	539.47682	1330.75647	240.94166000000004	325.95226	1483.63465	212.40909000000005	626.42482	1359.28903	-156.34202	640.51498	1370.73728	-107.55485	407.32291	1493.85001	-123.40627999999997	690.24149	1322.12624	238.18233	621.14102	1292.83046	270.35486	553.15602	1300.58005	258.08468	793.98025	1352.30266	-83.42546000000002	733.15775	1341.73504	-136.85063	663.82244	1347.01885	-135.3242	-3.463829999999982	1221.08809	146.8898700000001	309.68987	1006.80031	160.86261000000002	325.13034	1014.49119	89.12023000000002	338.10502	1046.07662	130.68619000000004	45.85170999999998	1231.42087	-143.01507999999993	292.78169	946.50619	-98.39624999999998	286.38241	944.86234	-24.89260999999998	318.26138	974.98004	-56.00836999999998	327.88966	961.35956	128.69009000000003	15.440460000000016	756.9936	128.33783000000005	23.71843000000001	753.00139	69.92240000000004	339.22049	917.44524	-59.296069999999986	274.87545	554.62374	-119.35536	272.35096	550.10315	-60.47025	-66.10630999999998	727.11073	85.01060000000005	41.624670000000016	606.93344	91.35117000000004	25.303570000000022	619.84942	164.85482000000002	47.319440000000014	597.42259	132.91713000000001	-40.978869999999986	701.22007	95.10855000000004	95.51951000000001	542.06002	153.34786000000003	222.44833	476.83434	-89.35507	374.50459	453.17462	-40.509200000000014	379.67098	449.1237	-116.59604000000002	398.34043	447.53856	-75.91071000000001	259.5524	472.54859	-86.59575	473.25309	434.85742	-70.15723000000003	
